<svg width="1400" height="433" viewBox="0 0 1400 433" fill="none" xmlns="http://www.w3.org/2000/svg">
<path d="M71.3305 423.536V57.9699L131.367 114.757H0V9.46446H211.614V423.536H71.3305Z" fill="#282828"/>
<path d="M421.426 0C461.054 0 495.728 7.68988 525.449 23.0697C555.567 38.0551 578.947 60.5332 595.591 90.5041C612.631 120.475 621.151 158.136 621.151 203.486C621.151 251.992 611.442 293.399 592.024 327.708C572.607 361.622 545.66 387.649 511.183 405.79C476.707 423.93 436.484 433 390.516 433C365.946 433 342.17 430.042 319.185 424.127C296.597 418.606 277.378 410.719 261.527 400.466L312.052 302.863C324.337 311.539 336.622 317.454 348.906 320.609C361.587 323.37 374.466 324.75 387.544 324.75C415.68 324.75 438.069 316.469 454.713 299.906C471.753 282.949 480.273 258.499 480.273 226.556C480.273 220.641 480.273 214.923 480.273 209.402C480.273 203.486 480.273 197.571 480.273 191.656L512.372 214.725C504.843 228.133 495.53 239.57 484.434 249.034C473.735 258.104 461.054 265.203 446.391 270.329C431.729 275.061 414.689 277.428 395.271 277.428C369.909 277.428 346.331 272.104 324.535 261.456C303.136 250.414 285.7 235.035 272.226 215.317C259.149 195.205 252.61 171.741 252.61 144.925C252.61 115.348 260.14 89.7154 275.198 68.026C290.257 46.3365 310.467 29.5765 335.829 17.7459C361.587 5.9153 390.12 0 421.426 0ZM430.936 96.4194C422.615 96.4194 415.283 98.194 408.943 101.743C402.602 104.898 397.451 109.63 393.488 115.94C389.921 122.25 388.138 129.742 388.138 138.418C388.138 151.432 392.101 161.882 400.027 169.769C408.348 177.262 418.652 181.008 430.936 181.008C439.258 181.008 446.589 179.234 452.93 175.684C459.667 172.135 464.818 167.206 468.385 160.896C471.951 154.587 473.735 147.094 473.735 138.418C473.735 129.742 471.951 122.25 468.385 115.94C464.818 109.63 459.667 104.898 452.93 101.743C446.589 98.194 439.258 96.4194 430.936 96.4194Z" fill="#282828"/>
<path d="M814.417 0C854.045 0 888.719 7.68988 918.44 23.0697C948.558 38.0551 971.938 60.5332 988.582 90.5041C1005.62 120.475 1014.14 158.136 1014.14 203.486C1014.14 251.992 1004.43 293.399 985.015 327.708C965.598 361.622 938.651 387.649 904.174 405.79C869.698 423.93 829.475 433 783.507 433C758.937 433 735.161 430.042 712.176 424.127C689.588 418.606 670.369 410.719 654.518 400.466L705.043 302.863C717.328 311.539 729.613 317.454 741.897 320.609C754.578 323.37 767.457 324.75 780.535 324.75C808.671 324.75 831.06 316.469 847.704 299.906C864.744 282.949 873.264 258.499 873.264 226.556C873.264 220.641 873.264 214.923 873.264 209.402C873.264 203.486 873.264 197.571 873.264 191.656L905.363 214.725C897.834 228.133 888.521 239.57 877.425 249.034C866.726 258.104 854.045 265.203 839.382 270.329C824.72 275.061 807.68 277.428 788.262 277.428C762.9 277.428 739.322 272.104 717.526 261.456C696.127 250.414 678.691 235.035 665.217 215.317C652.14 195.205 645.601 171.741 645.601 144.925C645.601 115.348 653.13 89.7154 668.189 68.026C683.248 46.3365 703.458 29.5765 728.82 17.7459C754.578 5.9153 783.111 0 814.417 0ZM823.927 96.4194C815.605 96.4194 808.274 98.194 801.934 101.743C795.593 104.898 790.442 109.63 786.479 115.94C782.912 122.25 781.129 129.742 781.129 138.418C781.129 151.432 785.092 161.882 793.018 169.769C801.339 177.262 811.643 181.008 823.927 181.008C832.249 181.008 839.58 179.234 845.921 175.684C852.658 172.135 857.809 167.206 861.376 160.896C864.942 154.587 866.726 147.094 866.726 138.418C866.726 129.742 864.942 122.25 861.376 115.94C857.809 109.63 852.658 104.898 845.921 101.743C839.58 98.194 832.249 96.4194 823.927 96.4194Z" fill="#282828"/>
<path d="M1108.14 423.536L1265.07 59.153L1302.52 117.714H1105.17L1159.85 54.4208V178.051H1043.94V9.46446H1400V95.2363L1261.5 423.536H1108.14Z" fill="#282828"/>
</svg>
