<svg width="100" height="100" viewBox="0 0 100 100" fill="none" xmlns="http://www.w3.org/2000/svg">
<path d="M100 50C100 77.6142 77.6142 100 50 100C22.3858 100 0 77.6142 0 50C0 22.3858 22.3858 0 50 0C77.6142 0 100 22.3858 100 50Z" fill="white"/>
<path d="M88.2599 61.2676L87.2062 63.8388L86.4156 63.5148L87.4693 60.9436L88.2599 61.2676ZM86.0131 60.4331L84.8171 63.3515L84.0117 63.0215L85.6013 59.1426L90.7732 61.2621L89.226 65.0376L88.4207 64.7075L89.5743 61.8925L86.0131 60.4331Z" fill="#D20A28"/>
<path d="M82.7518 66.3086L88.7791 67.2476L88.1748 68.1975L82.7402 67.3234L83.0874 66.7777L86.1687 71.3503L85.6115 72.2261L82.2031 67.1709L82.7518 66.3086Z" fill="#D20A28"/>
<path d="M78.6784 72.4965C78.9802 72.1812 79.31 71.9406 79.6679 71.7747C80.0257 71.6087 80.3907 71.5161 80.7631 71.4967C81.1392 71.4809 81.5038 71.5389 81.8568 71.6705C82.2137 71.8058 82.5421 72.017 82.842 72.3041C83.1419 72.5912 83.3653 72.9083 83.5122 73.2552C83.6629 73.6058 83.7367 73.9675 83.7335 74.3403C83.7342 74.7168 83.6594 75.0874 83.5092 75.4521C83.3591 75.8168 83.1349 76.1549 82.8367 76.4664C82.5349 76.7817 82.2069 77.0204 81.8527 77.1825C81.4949 77.3484 81.1279 77.4392 80.7518 77.455C80.3795 77.4744 80.0149 77.4164 79.658 77.2811C79.305 77.1495 78.9786 76.9402 78.6786 76.653C78.3787 76.3659 78.1534 76.047 78.0027 75.6964C77.852 75.3458 77.7782 74.9841 77.7813 74.6113C77.7845 74.2385 77.8612 73.8697 78.0114 73.505C78.1579 73.1442 78.3802 72.808 78.6784 72.4965ZM79.3414 73.1202C79.1463 73.324 79.0005 73.5456 78.9041 73.7849C78.8077 74.0242 78.7622 74.268 78.7676 74.5164C78.7768 74.7684 78.8329 75.01 78.9359 75.2412C79.039 75.4799 79.1943 75.6987 79.402 75.8975C79.6096 76.0962 79.833 76.2401 80.0721 76.329C80.3114 76.4254 80.5553 76.4709 80.8036 76.4655C81.0558 76.4638 81.2994 76.4095 81.5342 76.3028C81.7691 76.196 81.9841 76.0407 82.1792 75.8369C82.3743 75.6331 82.5201 75.4116 82.6165 75.1723C82.7092 74.9368 82.7528 74.6911 82.7473 74.4352C82.7418 74.1869 82.6876 73.9433 82.5845 73.7046C82.4816 73.4734 82.3263 73.2585 82.1186 73.0597C81.9148 72.8646 81.6933 72.7188 81.454 72.6224C81.211 72.5298 80.9634 72.4844 80.7112 72.4861C80.4628 72.4915 80.2212 72.5476 79.9864 72.6544C79.7515 72.7612 79.5365 72.9164 79.3414 73.1202Z" fill="#D20A28"/>
<path d="M74.5957 76.7151C74.9199 76.439 75.2453 76.3121 75.5721 76.3346C75.8988 76.357 76.2002 76.5303 76.4763 76.8545L78.9924 79.8089L78.4088 80.3059L75.9134 77.3758C75.765 77.2015 75.6086 77.104 75.4441 77.0833C75.2756 77.066 75.1102 77.1264 74.9481 77.2645C74.7658 77.4198 74.6569 77.5999 74.6216 77.8047L74.082 77.5406C74.1056 77.3876 74.1647 77.2394 74.2593 77.096C74.3498 76.956 74.4619 76.829 74.5957 76.7151ZM78.53 78.1576L78.9389 78.6378L76.8842 80.3877L76.4752 79.9074L78.53 78.1576Z" fill="#282828"/>
<path d="M71.4315 79.3508C71.8141 79.1093 72.2015 78.975 72.5935 78.9479C72.981 78.9236 73.3425 78.9976 73.6779 79.1699C74.0087 79.3451 74.2864 79.6105 74.5108 79.9661C74.7353 80.3217 74.8576 80.6852 74.8779 81.0563C74.8936 81.4304 74.8147 81.7792 74.6412 82.1027C74.4661 82.4335 74.2074 82.7069 73.8653 82.9229C73.5187 83.1416 73.1643 83.2583 72.8021 83.2729C72.4399 83.2874 72.0964 83.202 71.7717 83.0167C71.4454 82.8387 71.1657 82.5651 70.9328 82.196C70.9157 82.169 70.8981 82.136 70.8798 82.0972C70.8571 82.0612 70.8381 82.026 70.8227 81.9916L73.868 80.0697L74.1621 80.5356L71.4543 82.2445L71.6154 81.9162C71.7558 82.1486 71.9323 82.3236 72.145 82.4412C72.3577 82.5588 72.5831 82.6117 72.8211 82.5999C73.0575 82.5955 73.2905 82.5208 73.5201 82.3759C73.7452 82.2339 73.9129 82.0557 74.0231 81.8413C74.1361 81.6315 74.1839 81.403 74.1665 81.156C74.1519 80.9134 74.0707 80.6751 73.923 80.441L73.8548 80.3329C73.7042 80.0944 73.5152 79.9146 73.2879 79.7937C73.0588 79.6802 72.8126 79.6342 72.5492 79.6556C72.2858 79.6771 72.0258 79.7688 71.7692 79.9308C71.5576 80.0643 71.389 80.221 71.2634 80.401C71.1333 80.5839 71.0485 80.7885 71.0088 81.0149L70.3867 80.8222C70.4295 80.5308 70.5411 80.2589 70.7217 80.0064C70.8978 79.7568 71.1344 79.5383 71.4315 79.3508Z" fill="#282828"/>
<path d="M68.7482 81.1973L70.6398 84.9829L69.9827 85.3113L69.4688 84.2827L69.6615 84.5077C69.6876 84.822 69.6114 85.11 69.4328 85.3718C69.2542 85.6336 68.9839 85.855 68.622 86.0358L68.2901 85.3715C68.321 85.362 68.3508 85.3501 68.3794 85.3359C68.4032 85.324 68.427 85.3121 68.4508 85.3002C68.8175 85.1169 69.0532 84.8623 69.158 84.5362C69.2629 84.21 69.2118 83.8399 69.0048 83.4256L68.0625 81.5399L68.7482 81.1973Z" fill="#282828"/>
<path d="M61.3187 88.7963C60.9941 88.8998 60.6873 88.9276 60.3984 88.88C60.1095 88.8324 59.8553 88.701 59.636 88.486C59.4116 88.2726 59.2363 87.968 59.1103 87.5724L58.3711 85.252L59.1015 85.0193L59.814 87.2561C59.9384 87.6466 60.1235 87.9117 60.3691 88.0513C60.6147 88.191 60.9023 88.2083 61.232 88.1033C61.4755 88.0257 61.6723 87.9071 61.8226 87.7475C61.9729 87.5879 62.0672 87.393 62.1057 87.1629C62.139 86.9344 62.1088 86.6731 62.0151 86.3789L61.3535 84.3019L62.0838 84.0692L62.7964 86.306C62.9208 86.6965 63.1058 86.9616 63.3514 87.1013C63.592 87.2425 63.8796 87.2598 64.2144 87.1532C64.4527 87.0773 64.6471 86.9595 64.7974 86.7999C64.9476 86.6403 65.042 86.4454 65.0804 86.2153C65.1188 85.9851 65.0912 85.723 64.9975 85.4288L64.3358 83.3518L65.0662 83.1191L66.3507 87.1514L65.6508 87.3744L65.3091 86.3017L65.5104 86.5392C65.4676 86.8433 65.3378 87.111 65.1209 87.3421C64.904 87.5732 64.6206 87.7445 64.2706 87.856C63.8852 87.9788 63.5222 87.9882 63.1819 87.8844C62.8431 87.7856 62.5692 87.5572 62.3602 87.1991L62.6957 87.2264C62.6726 87.5745 62.5387 87.8909 62.2942 88.1755C62.0496 88.4601 61.7245 88.6671 61.3187 88.7963Z" fill="#282828"/>
<path d="M54.0377 85.9941L54.0929 86.8867L54.1431 87.0516L54.2372 88.5738C54.2572 88.8979 54.3683 89.1417 54.5704 89.3052C54.7675 89.4743 55.0547 89.5472 55.4319 89.5239C55.6816 89.5085 55.9234 89.4509 56.1572 89.3511C56.3914 89.2566 56.5866 89.1352 56.7427 88.9869L57.097 89.541C56.89 89.7298 56.6379 89.8787 56.3406 89.9878C56.0383 90.1024 55.7199 90.1701 55.3851 90.1908C54.806 90.2266 54.351 90.1134 54.0201 89.8512C53.6893 89.589 53.5059 89.1683 53.4701 88.5892L53.3125 86.0389L54.0377 85.9941ZM55.4215 85.8605C55.735 85.8412 56.0145 85.8772 56.2602 85.9687C56.5005 86.0605 56.6902 86.1955 56.8292 86.3735C56.9685 86.5569 57.0456 86.7682 57.0604 87.0073C57.0745 87.2357 57.0342 87.4462 56.9394 87.6387C56.8393 87.8316 56.6705 87.9914 56.433 88.118C56.1902 88.245 55.8589 88.3215 55.4392 88.3475L54.1003 88.4302L54.0663 87.8803L55.3733 87.7995C55.7559 87.7759 56.0096 87.6962 56.1346 87.5605C56.2595 87.4248 56.3164 87.2666 56.3052 87.0859C56.2924 86.8787 56.1997 86.7164 56.0271 86.5991C55.8549 86.4871 55.6226 86.4401 55.3304 86.4582C55.0435 86.4759 54.7977 86.5551 54.5931 86.6958C54.3832 86.8367 54.2379 87.0324 54.1574 87.2827L53.9734 86.7661C54.059 86.5101 54.2246 86.2999 54.4705 86.1353C54.7166 85.9761 55.0336 85.8845 55.4215 85.8605Z" fill="#282828"/>
<path d="M39.5168 88.1277L36.9302 87.1126L37.2423 86.3173L39.8289 87.3323L39.5168 88.1277ZM40.3176 85.8686L37.3816 84.7164L37.6995 83.9062L41.6018 85.4376L39.5599 90.6407L35.7617 89.1501L36.0797 88.34L38.9116 89.4513L40.3176 85.8686Z" fill="#D20A28"/>
<path d="M34.3778 82.6778L33.5052 88.7151L32.5488 88.1213L33.363 82.6774L33.9125 83.0186L29.374 86.1501L28.4922 85.6025L33.5095 82.1387L34.3778 82.6778Z" fill="#D20A28"/>
<path d="M28.144 78.6747C28.4626 78.9731 28.7068 79.3003 28.8766 79.6563C29.0464 80.0123 29.1431 80.3763 29.1665 80.7484C29.1864 81.1243 29.1324 81.4895 29.0046 81.8439C28.8733 82.2023 28.6656 82.5329 28.3818 82.836C28.098 83.139 27.7834 83.3658 27.4381 83.5165C27.0891 83.671 26.7282 83.7487 26.3554 83.7496C25.979 83.7544 25.6076 83.6837 25.2412 83.5375C24.8749 83.3913 24.5344 83.1708 24.2197 82.8761C23.9011 82.5777 23.6589 82.2523 23.4929 81.9C23.3231 81.544 23.2283 81.178 23.2085 80.802C23.185 80.43 23.239 80.0648 23.3703 79.7065C23.4981 79.352 23.7039 79.0233 23.9877 78.7203C24.2716 78.4172 24.588 78.1885 24.9369 78.0339C25.2859 77.8794 25.6468 77.8017 26.0196 77.8008C26.3924 77.7999 26.762 77.8725 27.1283 78.0187C27.4907 78.1613 27.8293 78.3799 28.144 78.6747ZM27.5276 79.3445C27.3216 79.1516 27.0985 79.0083 26.8582 78.9145C26.6179 78.8207 26.3735 78.7778 26.1252 78.7859C25.8733 78.7979 25.6323 78.8567 25.4023 78.9621C25.1647 79.0678 24.9477 79.2255 24.7512 79.4353C24.5546 79.6451 24.4132 79.8701 24.3269 80.1102C24.2331 80.3505 24.1903 80.5948 24.1984 80.8431C24.2029 81.0953 24.2598 81.3382 24.3691 81.5719C24.4784 81.8056 24.6361 82.0189 24.842 82.2117C25.0479 82.4046 25.271 82.5479 25.5113 82.6418C25.7478 82.7319 25.9939 82.7729 26.2497 82.7645C26.498 82.7564 26.741 82.6995 26.9785 82.5938C27.2086 82.4883 27.4219 82.3307 27.6184 82.1209C27.8112 81.915 27.9546 81.6919 28.0484 81.4515C28.1383 81.2076 28.1811 80.9595 28.1766 80.7073C28.1685 80.459 28.1097 80.218 28.0004 79.9843C27.8911 79.7507 27.7335 79.5374 27.5276 79.3445Z" fill="#D20A28"/>
<path d="M23.8817 74.6452C24.1614 74.9664 24.2918 75.2905 24.2729 75.6174C24.2541 75.9444 24.0841 76.2477 23.7629 76.5273L20.8361 79.0754L20.3327 78.4973L23.2355 75.9701C23.4081 75.8198 23.5039 75.6623 23.5228 75.4976C23.5383 75.3289 23.4761 75.1642 23.3363 75.0037C23.179 74.823 22.9977 74.7161 22.7925 74.6831L23.0507 74.1406C23.2039 74.1625 23.3527 74.22 23.4972 74.313C23.6382 74.402 23.7664 74.5127 23.8817 74.6452ZM22.4823 78.595L22.0065 79.0092L20.2344 76.9737L20.7101 76.5595L22.4823 78.595Z" fill="#282828"/>
<path d="M21.2219 71.5285C21.4675 71.9085 21.6061 72.2943 21.6375 72.686C21.6661 73.0733 21.596 73.4355 21.4274 73.7728C21.2559 74.1055 20.9936 74.3861 20.6404 74.6144C20.2873 74.8428 19.9253 74.9691 19.5543 74.9935C19.1805 75.0133 18.8308 74.9383 18.5054 74.7684C18.1727 74.5969 17.8964 74.3412 17.6768 74.0015C17.4542 73.6573 17.3336 73.3042 17.3151 72.9422C17.2965 72.5802 17.3781 72.2358 17.5599 71.9091C17.7343 71.5808 18.0048 71.2981 18.3713 71.0611C18.3981 71.0438 18.4309 71.0258 18.4695 71.0071C18.5053 70.984 18.5402 70.9646 18.5744 70.9488L20.5298 73.9728L20.0672 74.272L18.3286 71.5832L18.6586 71.7407C18.4277 71.8836 18.2547 72.0621 18.1395 72.276C18.0242 72.49 17.9738 72.7159 17.9882 72.9538C17.9952 73.1902 18.0725 73.4223 18.2199 73.6503C18.3644 73.8738 18.5444 74.0395 18.76 74.1474C18.971 74.2581 19.2 74.3034 19.4469 74.2832C19.6893 74.2659 19.9267 74.1821 20.1591 74.0318L20.2664 73.9625C20.5033 73.8093 20.681 73.6183 20.7993 73.3897C20.9103 73.1594 20.9537 72.9127 20.9293 72.6495C20.9049 72.3864 20.8104 72.1274 20.6456 71.8726C20.5098 71.6625 20.3512 71.4956 20.1698 71.372C19.9855 71.2439 19.78 71.1613 19.5531 71.1242L19.7391 70.5C20.0309 70.5395 20.304 70.6482 20.5584 70.826C20.8099 70.9993 21.0311 71.2335 21.2219 71.5285Z" fill="#282828"/>
<path d="M19.3514 68.8811L15.587 70.8147L15.2514 70.1612L16.2741 69.6359L16.0513 69.8311C15.7373 69.8607 15.4485 69.7877 15.1847 69.612C14.9209 69.4363 14.6966 69.1685 14.5117 68.8087L15.1723 68.4694C15.1821 68.5002 15.1943 68.5299 15.2089 68.5583C15.2211 68.5819 15.2333 68.6056 15.2454 68.6293C15.4327 68.9939 15.69 69.2268 16.0172 69.328C16.3445 69.4292 16.7141 69.374 17.1261 69.1624L19.0011 68.1992L19.3514 68.8811Z" fill="#282828"/>
<path d="M11.6971 61.8444C11.6013 61.5174 11.5806 61.2101 11.635 60.9224C11.6894 60.6346 11.8266 60.3836 12.0467 60.1694C12.2654 59.95 12.5739 59.782 12.9724 59.6652L15.3095 58.9805L15.525 59.7161L13.2722 60.3761C12.8788 60.4914 12.6095 60.6701 12.4641 60.9124C12.3188 61.1547 12.2948 61.4419 12.392 61.7739C12.4639 62.0191 12.5778 62.2187 12.7339 62.3727C12.8899 62.5266 13.0825 62.6255 13.3117 62.6693C13.5394 62.708 13.8013 62.684 14.0976 62.5971L16.1895 61.9842L16.4051 62.7199L14.1522 63.3799C13.7589 63.4952 13.4895 63.6739 13.3442 63.9162C13.1974 64.1534 13.1733 64.4405 13.2721 64.7777C13.3425 65.0178 13.4557 65.2148 13.6117 65.3688C13.7678 65.5227 13.9604 65.6216 14.1895 65.6654C14.4187 65.7092 14.6814 65.6877 14.9777 65.6009L17.0696 64.988L17.2851 65.7236L13.2239 66.9135L13.0174 66.2085L14.0978 65.892L13.8556 66.0878C13.5526 66.0379 13.2881 65.9018 13.0621 65.6796C12.8361 65.4573 12.6715 65.17 12.5682 64.8175C12.4545 64.4293 12.4535 64.0662 12.5653 63.7284C12.672 63.392 12.9067 63.1236 13.2695 62.923L13.2345 63.2577C12.8869 63.2264 12.5738 63.0852 12.295 62.8341C12.0161 62.583 11.8169 62.2531 11.6971 61.8444Z" fill="#282828"/>
<path d="M14.3774 54.293L13.4855 54.3585L13.3212 54.4106L11.8002 54.5223C11.4763 54.5461 11.2338 54.6599 11.0727 54.8639C10.9058 55.063 10.8362 55.351 10.8639 55.7279C10.8822 55.9774 10.9426 56.2185 11.0451 56.4512C11.1423 56.6843 11.2659 56.878 11.416 57.0324L10.8661 57.3931C10.6749 57.1883 10.5231 56.9379 10.4106 56.6419C10.2924 56.341 10.2211 56.0233 10.1965 55.6889C10.154 55.1102 10.262 54.6539 10.5203 54.32C10.7787 53.9861 11.1972 53.798 11.7759 53.7555L14.3242 53.5684L14.3774 54.293ZM14.5269 55.6751C14.5499 55.9884 14.5171 56.2683 14.4284 56.515C14.3394 56.7564 14.2067 56.9476 14.0302 57.0887C13.8484 57.2301 13.6381 57.3096 13.3992 57.3272C13.1709 57.3439 12.96 57.306 12.7664 57.2135C12.5724 57.1157 12.4107 56.9487 12.2813 56.7127C12.1514 56.4714 12.0711 56.141 12.0404 55.7216L11.9421 54.3838L12.4916 54.3434L12.5875 55.6494C12.6155 56.0317 12.6982 56.2845 12.8353 56.4078C12.9725 56.5312 13.1313 56.5862 13.3118 56.573C13.5189 56.5578 13.68 56.4632 13.7954 56.2893C13.9054 56.1158 13.9497 55.883 13.9283 55.591C13.9072 55.3043 13.8252 55.0595 13.6822 54.8565C13.5388 54.6482 13.3415 54.5052 13.0902 54.4276L13.6047 54.2377C13.8616 54.3202 14.0738 54.4834 14.2411 54.7274C14.4032 54.9717 14.4984 55.2876 14.5269 55.6751Z" fill="#282828"/>
<path d="M12.0202 39.8332L13.0061 37.2353L13.8049 37.5384L12.819 40.1364L12.0202 39.8332ZM14.2881 40.6085L15.4072 37.6597L16.2209 37.9685L14.7335 41.8878L9.50781 39.9046L10.9555 36.0898L11.7693 36.3987L10.6898 39.2429L14.2881 40.6085Z" fill="#D20A28"/>
<path d="M17.3737 34.6662L11.3242 33.8825L11.904 32.9174L17.3592 33.6515L17.0261 34.2059L13.8283 29.714L14.3628 28.8242L17.9 33.7901L17.3737 34.6662Z" fill="#D20A28"/>
<path d="M21.3293 28.2866C21.0344 28.6084 20.7099 28.8561 20.3558 29.0298C20.0016 29.2035 19.6387 29.3041 19.2669 29.3316C18.8912 29.3556 18.5254 29.3056 18.1696 29.1817C17.8099 29.0542 17.477 28.8502 17.1709 28.5697C16.8647 28.2892 16.6345 27.9771 16.4801 27.6335C16.3218 27.2862 16.2401 26.9262 16.2352 26.5534C16.2263 26.177 16.2929 25.8049 16.4351 25.437C16.5773 25.0691 16.7941 24.7262 17.0854 24.4083C17.3803 24.0865 17.703 23.8407 18.0535 23.671C18.4076 23.4973 18.7725 23.3984 19.1483 23.3745C19.52 23.347 19.8858 23.397 20.2455 23.5244C20.6013 23.6483 20.9323 23.8505 21.2384 24.131C21.5445 24.4116 21.7767 24.7254 21.9351 25.0727C22.0934 25.42 22.175 25.78 22.18 26.1527C22.1849 26.5255 22.1163 26.8959 21.9741 27.2638C21.8355 27.6277 21.6206 27.9687 21.3293 28.2866ZM20.6528 27.6775C20.8434 27.4695 20.9843 27.2448 21.0755 27.0034C21.1667 26.7621 21.2069 26.5173 21.1961 26.2691C21.1813 26.0174 21.1199 25.777 21.012 25.5481C20.9037 25.3117 20.7436 25.0964 20.5317 24.9022C20.3198 24.708 20.0933 24.5691 19.8523 24.4854C19.611 24.3942 19.3662 24.354 19.118 24.3648C18.8659 24.3721 18.6236 24.4316 18.3911 24.5435C18.1586 24.6554 17.9471 24.8153 17.7565 25.0233C17.5659 25.2313 17.4249 25.456 17.3338 25.6973C17.2462 25.9347 17.2079 26.1813 17.2191 26.437C17.2299 26.6852 17.2895 26.9275 17.3977 27.1639C17.5057 27.3928 17.6656 27.6043 17.8776 27.7986C18.0856 27.9892 18.3102 28.1301 18.5516 28.2213C18.7965 28.3085 19.045 28.3486 19.2971 28.3413C19.5453 28.3305 19.7857 28.2691 20.0182 28.1573C20.2506 28.0454 20.4622 27.8855 20.6528 27.6775Z" fill="#D20A28"/>
<path d="M25.2279 24.0506C24.9109 24.3349 24.5887 24.47 24.2615 24.4559C23.9343 24.4418 23.6286 24.2762 23.3443 23.9591L20.7539 21.0697L21.3247 20.558L23.8938 23.4237C24.0466 23.5941 24.2054 23.6876 24.3704 23.7041C24.5393 23.7171 24.7031 23.6525 24.8616 23.5104C25.04 23.3505 25.1442 23.1677 25.1743 22.962L25.7204 23.2123C25.7007 23.3658 25.6454 23.5155 25.5545 23.6613C25.4676 23.8036 25.3587 23.9333 25.2279 24.0506ZM21.2582 22.7088L20.8371 22.2391L22.8466 20.4375L23.2677 20.9072L21.2582 22.7088Z" fill="#282828"/>
<path d="M28.4173 21.2444C28.0401 21.4942 27.6558 21.637 27.2644 21.6728C26.8775 21.7056 26.5145 21.6395 26.1754 21.4746C25.8408 21.3068 25.5574 21.0476 25.3252 20.697C25.0929 20.3463 24.9626 19.9857 24.9342 19.6151C24.9102 19.2415 24.9814 18.891 25.1478 18.5638C25.3156 18.2291 25.5682 17.9501 25.9055 17.7267C26.2472 17.5004 26.5989 17.3759 26.9607 17.3534C27.3225 17.3309 27.6678 17.4087 27.9965 17.5868C28.3267 17.7576 28.6123 18.025 28.8533 18.3889C28.8709 18.4155 28.8893 18.448 28.9084 18.4865C28.9319 18.522 28.9517 18.5567 28.9679 18.5908L25.9655 20.5793L25.6613 20.12L28.3308 18.3519L28.177 18.6836C28.0315 18.4543 27.8512 18.2833 27.6359 18.1704C27.4207 18.0576 27.1942 18.0096 26.9565 18.0266C26.7202 18.0363 26.4889 18.116 26.2626 18.2659C26.0407 18.4129 25.877 18.5947 25.7715 18.8115C25.6631 19.0237 25.6204 19.2532 25.6432 19.4998C25.6632 19.742 25.7496 19.9785 25.9024 20.2093L25.973 20.3158C26.1288 20.551 26.3216 20.7265 26.5516 20.8424C26.7831 20.9508 27.0303 20.9915 27.2931 20.9642C27.556 20.9369 27.8139 20.8395 28.0669 20.672C28.2755 20.5338 28.4406 20.3734 28.5622 20.1907C28.6883 20.005 28.7686 19.7986 28.8032 19.5713L29.4294 19.7504C29.3931 20.0426 29.2875 20.3169 29.1125 20.5732C28.9419 20.8267 28.7102 21.0504 28.4173 21.2444Z" fill="#282828"/>
<path d="M31.0143 19.3538L29.0391 15.6112L29.6887 15.2683L30.2254 16.2852L30.0277 16.0645C29.9946 15.7509 30.0644 15.4612 30.2372 15.1955C30.4099 14.9298 30.6752 14.7025 31.033 14.5137L31.3796 15.1704C31.3489 15.1806 31.3194 15.1932 31.2911 15.2081C31.2676 15.2205 31.2441 15.2329 31.2205 15.2453C30.858 15.4367 30.628 15.6965 30.5304 16.0249C30.4329 16.3532 30.4922 16.7222 30.7083 17.1318L31.6923 18.996L31.0143 19.3538Z" fill="#282828"/>
<path d="M37.9091 11.4956C38.2272 11.3736 38.5319 11.3281 38.8231 11.359C39.1143 11.3898 39.3756 11.5063 39.607 11.7083C39.8433 11.9084 40.0358 12.2023 40.1845 12.59L41.0565 14.8639L40.3407 15.1384L39.5002 12.9465C39.3535 12.5638 39.1535 12.3098 38.9002 12.1846C38.6469 12.0593 38.3588 12.0587 38.0357 12.1825C37.7971 12.274 37.6074 12.4038 37.4666 12.5718C37.3258 12.7398 37.2429 12.9398 37.2178 13.1718C37.1977 13.4018 37.2429 13.661 37.3535 13.9493L38.1339 15.9846L37.4182 16.259L36.5777 14.0671C36.4309 13.6844 36.2309 13.4305 35.9777 13.3052C35.7294 13.1781 35.4412 13.1774 35.1132 13.3032C34.8796 13.3928 34.6924 13.5216 34.5516 13.6896C34.4107 13.8576 34.3278 14.0576 34.3027 14.2896C34.2776 14.5215 34.3204 14.7817 34.4309 15.0699L35.2114 17.1053L34.4957 17.3797L32.9805 13.4284L33.6664 13.1653L34.0695 14.2165L33.8547 13.991C33.8799 13.6849 33.994 13.4103 34.1972 13.167C34.4004 12.9238 34.6735 12.7364 35.0164 12.6049C35.3942 12.46 35.7559 12.4296 36.1017 12.5137C36.4456 12.5927 36.7322 12.805 36.9616 13.1503L36.6251 13.1425C36.6281 12.7936 36.7435 12.47 36.9711 12.1717C37.1988 11.8735 37.5115 11.6481 37.9091 11.4956Z" fill="#282828"/>
<path d="M45.4998 14.1862L45.424 13.2951L45.37 13.1314L45.2408 11.6118C45.2132 11.2882 45.0966 11.0471 44.8907 10.8883C44.6898 10.7237 44.401 10.6575 44.0244 10.6895C43.7751 10.7107 43.5347 10.7739 43.3033 10.8791C43.0713 10.9789 42.879 11.1048 42.7263 11.2567L42.3594 10.7109C42.562 10.5174 42.8106 10.3627 43.1052 10.2468C43.4047 10.1252 43.7216 10.0501 44.0557 10.0217C44.6339 9.97254 45.0914 10.0752 45.4282 10.3297C45.7651 10.5842 45.9581 11.0005 46.0073 11.5787L46.2238 14.1246L45.4998 14.1862ZM44.1195 14.3517C43.8066 14.3783 43.5262 14.3487 43.2785 14.2629C43.0361 14.1767 42.8434 14.0462 42.7003 13.8713C42.5568 13.6912 42.4748 13.4818 42.4545 13.2431C42.4351 13.0151 42.4706 12.8037 42.5609 12.609C42.6565 12.4139 42.8215 12.2503 43.056 12.1182C43.2959 11.9856 43.6253 11.9015 44.0443 11.8658L45.3809 11.7521L45.4276 12.3011L44.1228 12.4121C43.7409 12.4446 43.4891 12.5301 43.3673 12.6687C43.2455 12.8072 43.1923 12.9667 43.2077 13.147C43.2253 13.3539 43.3217 13.514 43.4969 13.6273C43.6717 13.7353 43.905 13.7769 44.1967 13.7521C44.4831 13.7277 44.727 13.6429 44.9283 13.4975C45.135 13.3517 45.2757 13.1528 45.3504 12.9007L45.5462 13.4129C45.4666 13.6708 45.3059 13.8848 45.0639 14.055C44.8215 14.2198 44.5067 14.3187 44.1195 14.3517Z" fill="#282828"/>
<path d="M60.0083 11.6364L62.6171 12.593L62.323 13.3952L59.7141 12.4386L60.0083 11.6364ZM59.2586 13.9129L62.2198 14.9987L61.9201 15.8159L57.9844 14.3727L59.9086 9.125L63.7394 10.5297L63.4398 11.3468L60.5835 10.2995L59.2586 13.9129Z" fill="#D20A28"/>
<path d="M65.2656 16.9387L65.9825 10.8809L66.954 11.4499L66.2801 16.9129L65.7221 16.586L70.1783 13.3387L71.074 13.8634L66.1475 17.4553L65.2656 16.9387Z" fill="#D20A28"/>
<path d="M71.7239 20.8449C71.3989 20.5535 71.1476 20.2317 70.9701 19.8795C70.7925 19.5273 70.688 19.1655 70.6564 18.794C70.6284 18.4186 70.6744 18.0523 70.7943 17.6951C70.9179 17.3341 71.1182 16.9989 71.3954 16.6898C71.6726 16.3806 71.9821 16.147 72.3241 15.9888C72.6696 15.8267 73.0287 15.7412 73.4014 15.7321C73.7777 15.7192 74.1505 15.7817 74.5199 15.9199C74.8894 16.0581 75.2346 16.2711 75.5556 16.5589C75.8806 16.8503 76.1299 17.1703 76.3035 17.5189C76.4811 17.8711 76.5839 18.235 76.6119 18.6104C76.6435 18.9819 76.5975 19.3482 76.4739 19.7092C76.3539 20.0664 76.1554 20.3995 75.8782 20.7087C75.601 21.0178 75.2897 21.2535 74.9442 21.4156C74.5987 21.5777 74.2396 21.6632 73.8669 21.6722C73.4942 21.6813 73.1231 21.6167 72.7537 21.4785C72.3882 21.3439 72.045 21.1327 71.7239 20.8449ZM72.3256 20.1618C72.5357 20.3501 72.7619 20.4885 73.0042 20.5771C73.2465 20.6657 73.4917 20.7032 73.7398 20.6896C73.9914 20.6721 74.231 20.6082 74.4587 20.4977C74.6939 20.3869 74.9075 20.2245 75.0994 20.0104C75.2912 19.7964 75.4277 19.5684 75.5087 19.3265C75.5973 19.0842 75.6348 18.839 75.6213 18.5909C75.6113 18.3389 75.5491 18.0973 75.4347 17.866C75.3203 17.6348 75.1581 17.425 74.948 17.2367C74.7379 17.0483 74.5117 16.9099 74.2694 16.8213C74.0311 16.7363 73.7841 16.7008 73.5285 16.7147C73.2805 16.7283 73.0388 16.7905 72.8036 16.9013C72.5759 17.0118 72.3661 17.174 72.1742 17.388C71.9859 17.5981 71.8475 17.8243 71.7589 18.0666C71.6743 18.3125 71.637 18.5614 71.647 18.8134C71.6605 19.0615 71.7245 19.3012 71.8389 19.5324C71.9533 19.7637 72.1155 19.9734 72.3256 20.1618Z" fill="#D20A28"/>
<path d="M76.0062 24.7055C75.7185 24.3915 75.5799 24.0709 75.5904 23.7436C75.6009 23.4162 75.7632 23.1087 76.0771 22.821L78.9381 20.1992L79.456 20.7644L76.6185 23.3646C76.4498 23.5192 76.358 23.6791 76.3433 23.8442C76.3322 24.0133 76.3985 24.1763 76.5424 24.3333C76.7042 24.5099 76.8881 24.6121 77.0941 24.6399L76.8498 25.1888C76.6961 25.1708 76.5458 25.1171 76.399 25.0278C76.2558 24.9425 76.1249 24.835 76.0062 24.7055ZM77.3047 20.7214L77.7697 20.2952L79.5931 22.2849L79.1281 22.7111L77.3047 20.7214Z" fill="#282828"/>
<path d="M78.8459 27.8663C78.592 27.4919 78.4449 27.1092 78.4049 26.7182C78.3679 26.3317 78.4299 25.968 78.5911 25.6272C78.7552 25.2907 79.0113 25.0044 79.3594 24.7684C79.7074 24.5323 80.0666 24.3981 80.4369 24.3656C80.8102 24.3375 81.1614 24.4048 81.4905 24.5676C81.8269 24.7317 82.1087 24.9812 82.3358 25.316C82.5659 25.6552 82.6942 26.0056 82.7207 26.3671C82.7472 26.7286 82.6732 27.0747 82.4986 27.4053C82.3315 27.7374 82.0673 28.0259 81.7061 28.271C81.6796 28.2889 81.6473 28.3076 81.6091 28.3271C81.5738 28.351 81.5393 28.3712 81.5055 28.3877L79.4841 25.4074L79.94 25.0982L81.7373 27.748L81.4039 27.5979C81.6316 27.4499 81.8007 27.2677 81.9112 27.0513C82.0216 26.8348 82.0671 26.6078 82.0475 26.3703C82.0352 26.1341 81.9529 25.9037 81.8005 25.6791C81.6511 25.4588 81.4675 25.2971 81.2497 25.194C81.0362 25.0879 80.8063 25.0477 80.5599 25.0733C80.318 25.0959 80.0825 25.1849 79.8534 25.3402L79.7476 25.412C79.5142 25.5703 79.3408 25.7651 79.2274 25.9964C79.1215 26.229 79.0836 26.4766 79.1138 26.7392C79.1439 27.0017 79.2442 27.2586 79.4145 27.5097C79.5549 27.7167 79.7171 27.8801 79.9012 27.9997C80.0882 28.1237 80.2955 28.2017 80.5231 28.2339L80.351 28.862C80.0584 28.8289 79.783 28.7263 79.5247 28.5541C79.2694 28.3864 79.0431 28.1571 78.8459 27.8663Z" fill="#282828"/>
<path d="M80.7695 30.4542L84.4901 28.4375L84.8401 29.0833L83.8293 29.6313L84.0477 29.4311C84.3609 29.3945 84.6514 29.4611 84.919 29.6309C85.1866 29.8007 85.4168 30.0635 85.6096 30.4191L84.9567 30.773C84.9462 30.7424 84.9333 30.713 84.9181 30.685C84.9054 30.6616 84.8927 30.6382 84.8801 30.6148C84.6847 30.2544 84.4224 30.0273 84.0929 29.9334C83.7635 29.8395 83.3952 29.9029 82.9881 30.1235L81.1348 31.1281L80.7695 30.4542Z" fill="#282828"/>
<path d="M88.9764 37.4831C89.0922 37.8035 89.1317 38.109 89.0952 38.3995C89.0586 38.69 88.9371 38.949 88.7306 39.1764C88.5259 39.4088 88.2283 39.5956 87.8378 39.7366L85.5473 40.564L85.2868 39.843L87.4948 39.0455C87.8803 38.9063 88.1381 38.7113 88.2683 38.4605C88.3984 38.2097 88.4047 37.9216 88.2872 37.5962C88.2004 37.3559 88.0743 37.1637 87.9091 37.0196C87.7439 36.8756 87.5455 36.7887 87.3141 36.7591C87.0845 36.7345 86.8245 36.7747 86.5341 36.8796L84.4839 37.6201L84.2235 36.8991L86.4314 36.1016C86.8169 35.9624 87.0748 35.7674 87.2049 35.5166C87.3369 35.2709 87.3432 34.9828 87.2238 34.6523C87.1388 34.417 87.0137 34.2273 86.8485 34.0833C86.6832 33.9392 86.4849 33.8523 86.2535 33.8227C86.0221 33.7931 85.7612 33.8308 85.4708 33.9357L83.4206 34.6762L83.1602 33.9553L87.1404 32.5176L87.39 33.2085L86.3311 33.591L86.5607 33.3807C86.8663 33.4118 87.1387 33.5313 87.3779 33.7392C87.6171 33.9471 87.7991 34.2238 87.9239 34.5692C88.0614 34.9497 88.0847 35.312 87.9939 35.6561C87.9081 35.9984 87.6903 36.2808 87.3406 36.5034L87.355 36.1671C87.7038 36.1769 88.025 36.2986 88.3188 36.5321C88.6125 36.7655 88.8317 37.0826 88.9764 37.4831Z" fill="#282828"/>
<path d="M86.0842 44.9245L86.9743 44.8384L87.1374 44.7825L88.6554 44.6357C88.9786 44.6045 89.2184 44.485 89.3748 44.2774C89.537 44.0745 89.5999 43.785 89.5635 43.4088C89.5395 43.1598 89.4735 42.9201 89.3657 42.6899C89.2631 42.4592 89.1351 42.2683 88.9814 42.1174L89.5229 41.7441C89.7188 41.9445 89.8763 42.1913 89.9956 42.4846C90.1207 42.7827 90.1994 43.0986 90.2317 43.4324C90.2875 44.01 90.1901 44.4686 89.9395 44.8084C89.689 45.1481 89.2749 45.346 88.6974 45.4018L86.1541 45.6477L86.0842 44.9245ZM85.9027 43.5462C85.8725 43.2336 85.8989 42.9529 85.9818 42.7043C86.0652 42.4609 86.1935 42.2666 86.3666 42.1215C86.5451 41.9759 86.7535 41.8916 86.992 41.8685C87.2198 41.8465 87.4316 41.8795 87.6272 41.9676C87.8235 42.0609 87.989 42.224 88.1238 42.457C88.2592 42.6953 88.3471 43.0237 88.3875 43.4423L88.5167 44.7775L87.9683 44.8305L87.8422 43.5271C87.8053 43.1456 87.7169 42.8948 87.5769 42.7746C87.437 42.6545 87.2769 42.6031 87.0968 42.6205C86.8901 42.6405 86.7312 42.7388 86.6199 42.9153C86.5139 43.0913 86.475 43.3251 86.5032 43.6165C86.5308 43.9026 86.6185 44.1455 86.7662 44.3451C86.9143 44.5501 87.1149 44.6884 87.3678 44.7602L86.8579 44.962C86.5991 44.8854 86.3833 44.7271 86.2103 44.4871C86.0427 44.2466 85.9401 43.933 85.9027 43.5462Z" fill="#282828"/>
</svg>
