<svg width="36" height="27" viewBox="0 0 36 27" fill="none" xmlns="http://www.w3.org/2000/svg">
<path d="M36.0003 20.7974C36.0003 21.5203 35.4575 22.1031 34.7821 22.1031H32.4184V27L26.6211 22.1031H11.5283C10.8546 22.1031 10.3086 21.5203 10.3086 20.7974V5.97749C10.3086 5.2561 10.8546 4.67013 11.5283 4.67013H34.7821C35.4575 4.67013 36.0003 5.2561 36.0003 5.97749V20.7974Z" fill="#D20A28"/>
<path d="M0 16.127C0 16.8468 0.545959 17.4328 1.22131 17.4328H3.58347V22.3281L9.37917 17.4328H24.4736C25.1473 17.4328 25.6933 16.8468 25.6933 16.127V1.30399C25.6933 0.585758 25.1473 -0.000213623 24.4736 -0.000213623H1.22131C0.545959 -0.000213623 0 0.585758 0 1.30399V16.127Z" fill="white"/>
<path d="M21.8439 5.88477H3.84766V4.76337H21.8439V5.88477Z" fill="#D20A28"/>
<path d="M21.8439 9.43359H3.84766V8.31212H21.8439V9.43359Z" fill="#D20A28"/>
<path d="M17.8549 12.9844H3.84766V11.8629H17.8549V12.9844Z" fill="#D20A28"/>
</svg>
