<svg width="26" height="26" viewBox="0 0 26 26" fill="none" xmlns="http://www.w3.org/2000/svg">
<path d="M19.4949 18.5343V23.6543C19.4949 24.3976 18.8925 25 18.1492 25H2.55664C1.8133 25 1.21094 24.3976 1.21094 23.6543V8.70966C1.21094 8.04343 1.47576 7.40439 1.94667 6.93285L7.48571 1.39379C7.73792 1.14159 8.08053 1 8.43703 1H18.1485C18.8919 1 19.4943 1.60239 19.4943 2.34573V6.15157" stroke="white" stroke-width="1.5" stroke-miterlimit="10" stroke-linecap="round" stroke-linejoin="round"/>
<path d="M4.58594 7.66941H7.88231V4.37305" stroke="white" stroke-width="1.5" stroke-miterlimit="10" stroke-linecap="round" stroke-linejoin="round"/>
<path d="M11.2393 19.1895H4.91016" stroke="white" stroke-width="1.5" stroke-miterlimit="10" stroke-linecap="round" stroke-linejoin="round"/>
<path d="M12.1849 15.1094H4.91016" stroke="white" stroke-width="1.5" stroke-miterlimit="10" stroke-linecap="round" stroke-linejoin="round"/>
<path d="M14.2942 11.0312H4.91016" stroke="white" stroke-width="1.5" stroke-miterlimit="10" stroke-linecap="round" stroke-linejoin="round"/>
<path d="M24.8013 8.06385L16.7661 17.7102L13.5469 19.2924L14.5209 15.8405L22.5561 6.1941C23.0726 5.57402 23.9942 5.48995 24.6142 6.00637C25.2337 6.5228 25.3178 7.44376 24.8013 8.06385Z" stroke="white" stroke-width="1.5" stroke-miterlimit="10" stroke-linecap="round" stroke-linejoin="round"/>
</svg>
